<svg width="980" height="160" viewBox="0 0 980 160" fill="none" xmlns="http://www.w3.org/2000/svg">
<path d="M64 144C99.3462 144 128 115.346 128 80C128 44.6538 99.3462 16 64 16C28.6538 16 0 44.6538 0 80C0 115.346 28.6538 144 64 144Z" fill="#DC9520"/>
<path d="M89.7235 39.0329C91.124 36.0297 89.8246 32.4598 86.8214 31.0594C83.8182 29.659 80.2483 30.9583 78.8478 33.9615L38.2765 120.967C36.876 123.97 38.1754 127.54 41.1786 128.941C44.1819 130.341 47.7517 129.042 49.1522 126.038L89.7235 39.0329Z" fill="white"/>
<path d="M196.75 64.75L190.125 66.625C189.708 65.5208 189.094 64.4479 188.281 63.4062C187.49 62.3437 186.406 61.4687 185.031 60.7812C183.656 60.0937 181.896 59.75 179.75 59.75C176.813 59.75 174.365 60.4271 172.406 61.7812C170.469 63.1146 169.5 64.8125 169.5 66.875C169.5 68.7083 170.167 70.1562 171.5 71.2187C172.833 72.2812 174.917 73.1667 177.75 73.875L184.875 75.625C189.167 76.6667 192.365 78.2604 194.469 80.4062C196.573 82.5312 197.625 85.2708 197.625 88.625C197.625 91.375 196.833 93.8333 195.25 96C193.688 98.1667 191.5 99.875 188.688 101.125C185.875 102.375 182.604 103 178.875 103C173.979 103 169.927 101.938 166.719 99.8125C163.51 97.6875 161.479 94.5833 160.625 90.5L167.625 88.75C168.292 91.3333 169.552 93.2708 171.406 94.5625C173.281 95.8542 175.729 96.5 178.75 96.5C182.188 96.5 184.917 95.7708 186.938 94.3125C188.979 92.8333 190 91.0625 190 89C190 87.3333 189.417 85.9375 188.25 84.8125C187.083 83.6667 185.292 82.8125 182.875 82.25L174.875 80.375C170.479 79.3333 167.25 77.7188 165.188 75.5312C163.146 73.3229 162.125 70.5625 162.125 67.25C162.125 64.5417 162.885 62.1458 164.406 60.0625C165.948 57.9792 168.042 56.3437 170.688 55.1562C173.354 53.9687 176.375 53.375 179.75 53.375C184.5 53.375 188.229 54.4167 190.938 56.5C193.667 58.5833 195.604 61.3333 196.75 64.75ZM229.602 54V60.25H204.727V54H229.602ZM211.977 42.5H219.352V88.25C219.352 90.3333 219.654 91.8958 220.258 92.9375C220.883 93.9583 221.674 94.6458 222.633 95C223.612 95.3333 224.643 95.5 225.727 95.5C226.539 95.5 227.206 95.4583 227.727 95.375C228.247 95.2708 228.664 95.1875 228.977 95.125L230.477 101.75C229.977 101.937 229.279 102.125 228.383 102.313C227.487 102.521 226.352 102.625 224.977 102.625C222.893 102.625 220.852 102.177 218.852 101.281C216.872 100.385 215.227 99.0208 213.914 97.1875C212.622 95.3542 211.977 93.0417 211.977 90.25V42.5ZM254.82 103.125C251.779 103.125 249.018 102.552 246.539 101.406C244.06 100.24 242.091 98.5625 240.633 96.375C239.174 94.1667 238.445 91.5 238.445 88.375C238.445 85.625 238.987 83.3958 240.07 81.6875C241.154 79.9583 242.602 78.6042 244.414 77.625C246.227 76.6458 248.227 75.9167 250.414 75.4375C252.622 74.9375 254.841 74.5417 257.07 74.25C259.987 73.875 262.352 73.5937 264.164 73.4062C265.997 73.1979 267.331 72.8542 268.164 72.375C269.018 71.8958 269.445 71.0625 269.445 69.875V69.625C269.445 66.5417 268.602 64.1458 266.914 62.4375C265.247 60.7292 262.716 59.875 259.32 59.875C255.799 59.875 253.039 60.6458 251.039 62.1875C249.039 63.7292 247.633 65.375 246.82 67.125L239.82 64.625C241.07 61.7083 242.737 59.4375 244.82 57.8125C246.924 56.1667 249.216 55.0208 251.695 54.375C254.195 53.7083 256.654 53.375 259.07 53.375C260.612 53.375 262.383 53.5625 264.383 53.9375C266.404 54.2917 268.352 55.0312 270.227 56.1562C272.122 57.2812 273.695 58.9792 274.945 61.25C276.195 63.5208 276.82 66.5625 276.82 70.375V102H269.445V95.5H269.07C268.57 96.5417 267.737 97.6562 266.57 98.8438C265.404 100.031 263.852 101.042 261.914 101.875C259.977 102.708 257.612 103.125 254.82 103.125ZM255.945 96.5C258.862 96.5 261.32 95.9271 263.32 94.7812C265.341 93.6354 266.862 92.1562 267.883 90.3437C268.924 88.5312 269.445 86.625 269.445 84.625V77.875C269.133 78.25 268.445 78.5937 267.383 78.9062C266.341 79.1979 265.133 79.4583 263.758 79.6875C262.404 79.8958 261.081 80.0833 259.789 80.25C258.518 80.3958 257.487 80.5208 256.695 80.625C254.779 80.875 252.987 81.2812 251.32 81.8437C249.674 82.3854 248.341 83.2083 247.32 84.3125C246.32 85.3958 245.82 86.875 245.82 88.75C245.82 91.3125 246.768 93.25 248.664 94.5625C250.581 95.8542 253.008 96.5 255.945 96.5ZM290.281 102V54H297.406V61.25H297.906C298.781 58.875 300.365 56.9479 302.656 55.4687C304.948 53.9896 307.531 53.25 310.406 53.25C310.948 53.25 311.625 53.2604 312.438 53.2812C313.25 53.3021 313.865 53.3333 314.281 53.375V60.875C314.031 60.8125 313.458 60.7187 312.563 60.5937C311.688 60.4479 310.76 60.375 309.781 60.375C307.448 60.375 305.365 60.8646 303.531 61.8437C301.719 62.8021 300.281 64.1354 299.219 65.8437C298.177 67.5312 297.656 69.4583 297.656 71.625V102H290.281ZM346.906 54V60.25H322.031V54H346.906ZM329.281 42.5H336.656V88.25C336.656 90.3333 336.958 91.8958 337.563 92.9375C338.188 93.9583 338.979 94.6458 339.938 95C340.917 95.3333 341.948 95.5 343.031 95.5C343.844 95.5 344.51 95.4583 345.031 95.375C345.552 95.2708 345.969 95.1875 346.281 95.125L347.781 101.75C347.281 101.937 346.583 102.125 345.688 102.313C344.792 102.521 343.656 102.625 342.281 102.625C340.198 102.625 338.156 102.177 336.156 101.281C334.177 100.385 332.531 99.0208 331.219 97.1875C329.927 95.3542 329.281 93.0417 329.281 90.25V42.5ZM377.609 103C372.984 103 368.995 101.979 365.641 99.9375C362.307 97.875 359.734 95 357.922 91.3125C356.13 87.6042 355.234 83.2917 355.234 78.375C355.234 73.4583 356.13 69.125 357.922 65.375C359.734 61.6042 362.255 58.6667 365.484 56.5625C368.734 54.4375 372.526 53.375 376.859 53.375C379.359 53.375 381.828 53.7917 384.266 54.625C386.703 55.4583 388.922 56.8125 390.922 58.6875C392.922 60.5417 394.516 63 395.703 66.0625C396.891 69.125 397.484 72.8958 397.484 77.375V80.5H360.484V74.125H389.984C389.984 71.4167 389.443 69 388.359 66.875C387.297 64.75 385.776 63.0729 383.797 61.8437C381.839 60.6146 379.526 60 376.859 60C373.922 60 371.38 60.7292 369.234 62.1875C367.109 63.625 365.474 65.5 364.328 67.8125C363.182 70.125 362.609 72.6042 362.609 75.25V79.5C362.609 83.125 363.234 86.1979 364.484 88.7187C365.755 91.2187 367.516 93.125 369.766 94.4375C372.016 95.7292 374.63 96.375 377.609 96.375C379.547 96.375 381.297 96.1042 382.859 95.5625C384.443 95 385.807 94.1667 386.953 93.0625C388.099 91.9375 388.984 90.5417 389.609 88.875L396.734 90.875C395.984 93.2917 394.724 95.4167 392.953 97.25C391.182 99.0625 388.995 100.479 386.391 101.5C383.786 102.5 380.859 103 377.609 103ZM426.828 103C422.828 103 419.297 101.99 416.234 99.9687C413.172 97.9271 410.776 95.0521 409.047 91.3438C407.318 87.6146 406.453 83.2083 406.453 78.125C406.453 73.0833 407.318 68.7083 409.047 65C410.776 61.2917 413.182 58.4271 416.266 56.4062C419.349 54.3854 422.911 53.375 426.953 53.375C430.078 53.375 432.547 53.8958 434.359 54.9375C436.193 55.9583 437.589 57.125 438.547 58.4375C439.526 59.7292 440.286 60.7917 440.828 61.625H441.453V38H448.828V102H441.703V94.625H440.828C440.286 95.5 439.516 96.6042 438.516 97.9375C437.516 99.25 436.089 100.427 434.234 101.469C432.38 102.49 429.911 103 426.828 103ZM427.828 96.375C430.786 96.375 433.286 95.6042 435.328 94.0625C437.37 92.5 438.922 90.3437 439.984 87.5937C441.047 84.8229 441.578 81.625 441.578 78C441.578 74.4167 441.057 71.2812 440.016 68.5937C438.974 65.8854 437.432 63.7812 435.391 62.2812C433.349 60.7604 430.828 60 427.828 60C424.703 60 422.099 60.8021 420.016 62.4062C417.953 63.9896 416.401 66.1458 415.359 68.875C414.339 71.5833 413.828 74.625 413.828 78C413.828 81.4167 414.349 84.5208 415.391 87.3125C416.453 90.0833 418.016 92.2917 420.078 93.9375C422.161 95.5625 424.745 96.375 427.828 96.375ZM505.719 103C501.719 103 498.188 101.99 495.125 99.9687C492.063 97.9271 489.667 95.0521 487.938 91.3438C486.208 87.6146 485.344 83.2083 485.344 78.125C485.344 73.0833 486.208 68.7083 487.938 65C489.667 61.2917 492.073 58.4271 495.156 56.4062C498.24 54.3854 501.802 53.375 505.844 53.375C508.969 53.375 511.438 53.8958 513.25 54.9375C515.083 55.9583 516.479 57.125 517.438 58.4375C518.417 59.7292 519.177 60.7917 519.719 61.625H520.344V38H527.719V102H520.594V94.625H519.719C519.177 95.5 518.406 96.6042 517.406 97.9375C516.406 99.25 514.979 100.427 513.125 101.469C511.271 102.49 508.802 103 505.719 103ZM506.719 96.375C509.677 96.375 512.177 95.6042 514.219 94.0625C516.26 92.5 517.813 90.3437 518.875 87.5937C519.938 84.8229 520.469 81.625 520.469 78C520.469 74.4167 519.948 71.2812 518.906 68.5937C517.865 65.8854 516.323 63.7812 514.281 62.2812C512.24 60.7604 509.719 60 506.719 60C503.594 60 500.99 60.8021 498.906 62.4062C496.844 63.9896 495.292 66.1458 494.25 68.875C493.229 71.5833 492.719 74.625 492.719 78C492.719 81.4167 493.24 84.5208 494.281 87.3125C495.344 90.0833 496.906 92.2917 498.969 93.9375C501.052 95.5625 503.635 96.375 506.719 96.375ZM562.375 103C557.75 103 553.76 101.979 550.406 99.9375C547.073 97.875 544.5 95 542.688 91.3125C540.896 87.6042 540 83.2917 540 78.375C540 73.4583 540.896 69.125 542.688 65.375C544.5 61.6042 547.021 58.6667 550.25 56.5625C553.5 54.4375 557.292 53.375 561.625 53.375C564.125 53.375 566.594 53.7917 569.031 54.625C571.469 55.4583 573.688 56.8125 575.688 58.6875C577.688 60.5417 579.281 63 580.469 66.0625C581.656 69.125 582.25 72.8958 582.25 77.375V80.5H545.25V74.125H574.75C574.75 71.4167 574.208 69 573.125 66.875C572.063 64.75 570.542 63.0729 568.563 61.8437C566.604 60.6146 564.292 60 561.625 60C558.688 60 556.146 60.7292 554 62.1875C551.875 63.625 550.24 65.5 549.094 67.8125C547.948 70.125 547.375 72.6042 547.375 75.25V79.5C547.375 83.125 548 86.1979 549.25 88.7187C550.521 91.2187 552.281 93.125 554.531 94.4375C556.781 95.7292 559.396 96.375 562.375 96.375C564.313 96.375 566.063 96.1042 567.625 95.5625C569.208 95 570.573 94.1667 571.719 93.0625C572.865 91.9375 573.75 90.5417 574.375 88.875L581.5 90.875C580.75 93.2917 579.49 95.4167 577.719 97.25C575.948 99.0625 573.76 100.479 571.156 101.5C568.552 102.5 565.625 103 562.375 103ZM631.258 54L613.508 102H606.008L588.258 54H596.258L609.508 92.25H610.008L623.258 54H631.258Z" fill="#0B0F14"/>
<path d="M468.734 102.5C467.193 102.5 465.87 101.948 464.766 100.844C463.661 99.7396 463.109 98.4167 463.109 96.875C463.109 95.3333 463.661 94.0104 464.766 92.9062C465.87 91.8021 467.193 91.25 468.734 91.25C470.276 91.25 471.599 91.8021 472.703 92.9062C473.807 94.0104 474.359 95.3333 474.359 96.875C474.359 97.8958 474.099 98.8333 473.578 99.6875C473.078 100.542 472.401 101.229 471.547 101.75C470.714 102.25 469.776 102.5 468.734 102.5Z" fill="#F5A623"/>
</svg>
